<?xml version="1.0" standalone="no"?><!DOCTYPE svg PUBLIC "-//W3C//DTD SVG 1.1//EN" "http://www.w3.org/Graphics/SVG/1.1/DTD/svg11.dtd"><svg t="1668946095624" class="icon" viewBox="0 0 1024 1024" version="1.1" xmlns="http://www.w3.org/2000/svg" p-id="3086" xmlns:xlink="http://www.w3.org/1999/xlink" width="200" height="200"><path d="M488.704 170.682182q13.063758-98.466909 135.524848-104.882424 6.415515-0.341333 11.194182 3.964121 4.770909 4.297697 5.112243 10.713212 0.333576 6.415515-3.964121 11.194182-4.305455 4.778667-10.72097 5.112242-96.713697 5.065697-106.379637 77.979152-0.845576 6.36897-5.95006 10.278788t-11.473455 3.064242q-6.36897-0.845576-10.278788-5.950061-3.902061-5.104485-3.064242-11.473454z" fill="#359F69" p-id="3087"></path><path d="M501.21697 171.318303q-3.033212-57.964606-27.547152-78.475636-23.513212-19.673212-71.718788-6.741334-6.206061 1.667879-11.776-1.543757-5.562182-3.211636-7.23006-9.417697-1.667879-6.206061 1.543757-11.776 3.211636-5.562182 9.417697-7.230061Q457.69697 39.020606 493.583515 69.042424q34.878061 29.184 38.62497 100.646788 0.333576 6.423273-3.964121 11.194182-4.305455 4.778667-10.72097 5.112242-6.415515 0.341333-11.194182-3.964121-4.778667-4.297697-5.112242-10.713212z" fill="#359F69" p-id="3088"></path><path d="M502.721939 172.187152Q490.433939 29.168485 561.462303 3.785697q6.050909-2.164364 11.861333 0.581818 5.810424 2.753939 7.967031 8.804849 2.164364 6.050909-0.581819 11.861333-2.753939 5.802667-8.804848 7.96703-48.508121 17.338182-38.260364 136.533334 0.550788 6.4-3.591757 11.318303-4.134788 4.918303-10.542546 5.469091-6.4 0.550788-11.318303-3.591758-4.918303-4.134788-5.469091-10.542545z" fill="#359F69" p-id="3089"></path><path d="M421.818182 158.836364c62.549333-11.248485 130.909091-19.106909 190.549333 8.044606 13.28097 19.882667 7.656727 44.900848 11.046788 67.203878 13.870545 7.074909 28.509091 12.412121 42.278788 19.494788 2.916848 1.551515 8.828121 4.654545 11.737212 6.198303l-1.163636 4.274425c-7.369697 21.814303 30.929455 35.390061 17.555394 58.468848-4.755394 12.412121-16.779636 7.850667-26.569697 6.88097 2.226424-6.004364 6.68703-17.935515 8.913454-23.846788-17.935515-17.361455-48.577939 18.517333-29.959757 33.644606-35.29697 18.230303-76.311273 16.003879-114.91297 18.230303-67.390061 0.581818-135.951515 2.909091-201.984-12.699151-20.945455-3.785697-39.369697-25.406061-32.969697-47.135031 12.024242-14.832485 26.763636-27.151515 39.563636-41.208242l5.430303-2.808243c56.723394-0.387879 32.387879-79.809939 80.484849-94.743272zM563.2 181.139394c10.084848 24.343273 15.515152 49.943273 18.517333 76.024242 28.997818-15.127273 15.034182-76.31903-18.517333-76.024242z" fill="#359F69" p-id="3090"></path><path d="M563.2 181.139394c33.551515-0.294788 47.515152 60.89697 18.517333 76.024242-3.002182-26.08097-8.432485-51.68097-18.517333-76.024242z" fill="#FFFFF8" p-id="3091"></path><path d="M215.466667 214.49697c44.606061-21.915152 92.222061 11.248485 125.866666 39.082666l-5.430303 2.808243c-36.941576 6.012121-65.939394 38.593939-51.293091 76.706909-102.500848 68.654545-141.288727 207.414303-123.834181 325.135515 25.31297 163.29697 176.003879 293.531152 341.232484 294.981818 168.339394 8.044606 330.961455-118.109091 360.246303-285.090909 28.416-136.440242-33.838545-280.048485-143.90303-362.860606a209.144242 209.144242 0 0 0-42.084848-41.208242l1.163636-4.274425c41.309091-12.8 77.769697-47.709091 123.733333-38.880969 31.806061 5.624242 42.472727 42.185697 45.474909 69.911272 7.470545 40.828121-3.971879 81.361455-4.266666 122.088728 85.434182 148.456727 52.658424 354.327273-77.769697 466.618182-133.329455 124.020364-357.523394 127.123394-495.119515 8.246303C138.860606 781.381818 95.418182 582.981818 172.993939 432.779636c21.139394-29.486545-0.775758-64.488727 3.29697-97.070545 1.838545-41.790061 0.488727-94.743273 39.175758-121.212121z m592.678788 66.715151c-25.018182 31.511273-24.824242 76.993939 16.096969 94.448485 3.002182-32.093091-0.387879-64.581818-6.20606-96.193939-2.521212 0.48097-7.369697 1.357576-9.890909 1.745454z m-602.864485 6.787879a711.346424 711.346424 0 0 0-0.287031 74.666667c45.575758-0.775758 33.070545-66.327273 0.287031-74.666667z" fill="#F0AD54" p-id="3092"></path><path d="M665.693091 253.579636c43.442424-26.476606 92.416-59.733333 145.943273-46.452363 44.412121 14.933333 50.812121 69.337212 53.527272 109.381818-0.682667 31.906909 5.430303 74.573576-22.791757 96.387879 0.294788-40.727273 11.737212-81.260606 4.274424-122.088728-3.009939-27.725576-13.676606-64.28703-45.482667-69.911272-45.963636-8.828121-82.424242 26.08097-123.733333 38.880969-2.909091-1.543758-8.820364-4.646788-11.737212-6.198303z" fill="#E59308" p-id="3093"></path><path d="M284.609939 333.094788c-14.646303-38.11297 14.351515-70.694788 51.293091-76.706909-12.8 14.056727-27.539394 26.375758-39.563636 41.208242-6.4 21.72897 12.024242 43.349333 32.969697 47.135031 66.032485 15.608242 134.593939 13.28097 201.984 12.699151 38.601697-2.226424 79.616 0 114.91297-18.230303 5.236364-2.521212 15.809939-7.369697 21.046303-9.797818 9.790061 0.969697 21.814303 5.531152 26.569697-6.88097 13.374061-23.078788-24.925091-36.654545-17.555394-58.468848A209.190788 209.190788 0 0 1 718.351515 305.260606c-8.339394 20.456727-18.424242 44.311273-42.759757 49.066667C576.48097 381.672727 472.436364 369.749333 371.006061 370.905212c-31.224242-6.004364-62.060606-16.67103-86.396122-37.810424z" fill="#376C55" p-id="3094"></path><path d="M808.145455 281.212121c2.521212-0.387879 7.369697-1.264485 9.890909-1.745454 5.818182 31.612121 9.216 64.100848 6.20606 96.193939-40.921212-17.454545-41.115152-62.937212-16.096969-94.448485z m-602.864485 6.787879c32.783515 8.339394 45.288727 73.890909-0.287031 74.666667a711.253333 711.253333 0 0 1 0.287031-74.666667z" fill="#FDEC78" p-id="3095"></path><path d="M646.206061 339.2c-18.618182-15.127273 12.024242-51.006061 29.959757-33.644606-2.226424 5.911273-6.68703 17.842424-8.913454 23.846788-5.236364 2.428121-15.809939 7.276606-21.046303 9.797818z" fill="#FFFFF8" p-id="3096"></path><path d="M718.351515 305.260606c110.056727 82.812121 172.311273 226.420364 143.90303 362.860606-0.294788-22.403879-0.775758-44.8-3.203878-67.10303-50.323394 16.484848-106.759758 9.309091-149.038546-23.660606 29.579636-18.812121 70.4-43.442424 61.967515-84.945455-14.064485-47.709091-68.561455-60.028121-111.127272-69.236363-27.151515-17.454545-60.89697-37.430303-93.579637-21.822061-43.442424 16.484848-50.424242 78.646303-19.882666 110.258424 22.791758 57.987879 87.761455 70.105212 143.228121 66.808243-38.981818 9.991758-76.900848 45.870545-118.597818 26.476606-35.10303-10.666667-57.212121-52.456727-98.327273-44.024243-40.137697-4.165818-61.866667 32.581818-91.151515 51.874909-30.735515-2.420364-62.246788-12.404364-85.519515-33.450666 52.844606 1.939394 110.731636-19.587879 124.796121-76.024243 32.775758-20.945455 21.915152-70.68703-3.77794-93.191757-17.749333-19.781818-46.157576-14.832485-69.818181-16.283152a1712.09697 1712.09697 0 0 0 22.784-22.892606c101.430303-1.155879 205.474909 10.767515 304.585697-16.577939 24.335515-4.755394 34.420364-28.609939 42.759757-49.066667z" fill="#FDEC78" p-id="3097"></path><path d="M160.775758 658.230303c-17.454545-117.721212 21.333333-256.48097 123.834181-325.135515 24.335515 21.139394 55.171879 31.806061 86.396122 37.810424a1712.09697 1712.09697 0 0 1-22.784 22.892606c-18.044121 10.666667-34.816 23.07103-52.270546 34.614303-32.28703 12.993939-64.488727 35.29697-71.175757 71.850667 2.327273 39.470545 38.981818 60.609939 68.747636 79.228121-42.46497 10.666667-85.915152-3.684848-128.768 2.040243-3.591758 25.398303-4.072727 51.099152-3.979636 76.699151z" fill="#FFCD73" p-id="3098"></path><path d="M348.222061 393.797818c23.660606 1.450667 52.068848-3.498667 69.818181 16.283152 25.693091 22.504727 36.553697 72.246303 3.77794 93.191757-10.278788-58.670545-72.145455-83.494788-125.866667-74.860606 17.454545-11.543273 34.226424-23.947636 52.270546-34.614303z m219.050666 7.555879c32.682667-15.608242 66.428121 4.367515 93.579637 21.822061-48.686545 9.69697-105.991758 32-113.462303 88.436363-30.541576-31.612121-23.559758-93.773576 19.882666-110.258424z" fill="#FFFFF8" p-id="3099"></path><path d="M547.390061 511.612121c7.470545-56.436364 64.775758-78.739394 113.462303-88.436363 42.565818 9.208242 97.062788 21.527273 111.127272 69.236363 8.432485 41.50303-32.387879 66.133333-61.967515 84.945455-4.848485 0.294788-14.545455 0.775758-19.393939 1.062788-55.466667 3.29697-120.436364-8.820364-143.228121-66.808243zM630.690909 444.315152c-33.939394 6.4-79.802182 38.11297-63.317333 77.668848 28.307394 45.777455 91.632485 51.595636 139.341576 38.981818 20.169697-13.769697-23.466667-11.434667-27.640243-25.40606-29.478788-33.838545 4.367515-82.323394 45.575758-79.220364-26.949818-19.2-62.836364-19.106909-93.959758-12.024242z m105.797818 28.50909c-18.432 4.072727-14.165333 39.369697 6.780121 34.428122 19.983515-3.110788 13.094788-39.959273-6.780121-34.428122z m-511.712969 27.438546c6.68703-36.553697 38.888727-58.856727 71.175757-71.850667 53.721212-8.634182 115.587879 16.190061 125.866667 74.860606-14.064485 56.436364-71.951515 77.963636-124.796121 76.024243l-3.498667 0.193939c-29.765818-18.618182-66.420364-39.757576-68.747636-79.228121z m66.715151-55.559758c-27.927273 8.145455-56.149333 33.551515-52.464485 65.070546 14.157576 51.293091 84.076606 68.266667 127.325091 44.311272-19.975758-8.727273-45.769697-19.68097-45.769697-45.575757-6.593939-32.193939 26.864485-51.106909 54.590061-51.781818-18.711273-25.018182-57.010424-17.159758-83.68097-12.024243z m95.224243 29.967515c-21.628121 3.490909-13.08703 37.329455 6.4 31.899152 21.046303-1.939394 13.963636-38.593939-6.4-31.899152z" fill="#1F1F1F" p-id="3100"></path><path d="M291.490909 444.70303c26.670545-5.135515 64.969697-12.993939 83.68097 12.024243-27.725576 0.674909-61.184 19.587879-54.590061 51.781818 0 25.894788 25.793939 36.848485 45.769697 45.575757-43.248485 23.955394-113.167515 6.981818-127.325091-44.311272-3.684848-31.51903 24.537212-56.925091 52.464485-65.070546z m339.2-0.387878c31.123394-7.082667 67.009939-7.175758 93.959758 12.024242-41.208242-3.10303-75.054545 45.381818-45.575758 79.220364 4.173576 13.971394 47.809939 11.636364 27.640243 25.40606-47.709091 12.613818-111.034182 6.795636-139.341576-38.981818-16.484848-39.555879 29.377939-71.268848 63.317333-77.668848z" fill="#FFFFF8" p-id="3101"></path><path d="M386.715152 474.670545c20.363636-6.694788 27.446303 29.959758 6.4 31.899152-19.48703 5.430303-28.028121-28.408242-6.4-31.899152z m349.773575-1.846303c19.874909-5.531152 26.763636 31.317333 6.780121 34.428122-20.945455 4.941576-25.212121-30.355394-6.780121-34.428122z" fill="#7B8B70" p-id="3102"></path><path d="M382.541576 612.747636c29.284848-19.293091 51.013818-56.040727 91.151515-51.874909 41.115152-8.432485 63.224242 33.357576 98.327273 44.024243 41.69697 19.393939 79.616-16.484848 118.597818-26.476606 4.848485-0.28703 14.545455-0.768 19.393939-1.062788 42.278788 32.969697 98.715152 40.145455 149.038546 23.660606 2.428121 22.30303 2.916848 44.699152 3.203878 67.10303-29.284848 166.981818-191.906909 293.143273-360.246303 285.090909-165.228606-1.450667-315.919515-131.684848-341.232484-294.981818-0.093091-25.6 0.387879-51.300848 3.979636-76.699151 42.852848-5.725091 86.30303 8.626424 128.768-2.040243l3.498667-0.193939c23.272727 21.046303 54.784 31.030303 85.519515 33.450666z m-33.062788 33.753212c-20.751515 7.361939-11.636364 35.777939-4.848485 50.711273 10.084848 24.824242 44.993939 28.020364 51.006061 55.078788 3.397818 18.517333 22.977939 36.367515 17.353697 54.690909-30.060606 6.888727-67.878788 3.684848-86.877091-23.854545-9.022061-7.563636-13.870545-25.506909-28.60994-21.814303-4.654545 37.042424 36.747636 62.060606 68.561455 69.042424 31.806061 9.890909 62.060606-16.872727 93.47103-5.725091 56.343273 18.525091 120.149333-0.093091 162.040243-40.727273 8.828121-8.339394 10.953697-18.323394 6.20606-30.060606-24.436364 12.900848-41.115152 37.430303-67.878788 46.646303-53.527273 23.171879-136.044606 9.208242-146.711272-58.181818 10.860606-30.549333 64.48097-52.953212 45.963636-92.322909-34.133333-13.761939-74.185697-10.371879-109.676606-3.483152z" fill="#FFFFAB" p-id="3103"></path><path d="M349.478788 646.500848c35.490909-6.888727 75.543273-10.278788 109.676606 3.483152 18.517333 39.369697-35.10303 61.773576-45.963636 92.322909 10.666667 67.390061 93.184 81.353697 146.711272 58.181818 26.763636-9.216 43.442424-33.745455 67.878788-46.646303 4.747636 11.737212 2.622061 21.721212-6.20606 30.060606-41.890909 40.634182-105.69697 59.252364-162.040243 40.727273-31.410424-11.147636-61.66497 15.616-93.47103 5.725091-31.813818-6.981818-73.216-32-68.561455-69.042424 14.739394-3.692606 19.587879 14.250667 28.60994 21.814303 18.998303 27.539394 56.816485 30.743273 86.877091 23.854545 5.624242-18.323394-13.955879-36.173576-17.353697-54.690909-6.012121-27.058424-40.921212-30.254545-51.006061-55.078788-6.787879-14.933333-15.90303-43.349333 4.848485-50.711273z m86.884848 19.968c-11.442424 39.276606 38.593939-10.759758 0 0z" fill="#7D180F" p-id="3104"></path><path d="M436.363636 666.468848c38.593939-10.759758-11.442424 39.276606 0 0z" fill="#FFFFF8" p-id="3105"></path></svg>